<svg width="24" height="24" viewBox="0 0 24 24" fill="none" xmlns="http://www.w3.org/2000/svg">
<path d="M19.4 14.9C20.2 16.4 21 17 21 17H3C3 17 6 15 6 8C6 4.7 8.7 2 12 2C12.7 2 13.3 2.1 13.9 2.3" stroke="#525966" stroke-width="1.2" stroke-linecap="round" stroke-linejoin="round"/>
<path d="M10.3008 21C10.4682 21.3044 10.7142 21.5583 11.0133 21.7352C11.3123 21.912 11.6534 22.0053 12.0008 22.0053C12.3482 22.0053 12.6892 21.912 12.9883 21.7352C13.2873 21.5583 13.5334 21.3044 13.7008 21" stroke="#525966" stroke-width="1.2" stroke-linecap="round" stroke-linejoin="round"/>
<path d="M18 11C19.6569 11 21 9.65685 21 8C21 6.34315 19.6569 5 18 5C16.3431 5 15 6.34315 15 8C15 9.65685 16.3431 11 18 11Z" stroke="#525966" stroke-width="1.2" stroke-linecap="round" stroke-linejoin="round"/>
</svg>
