<svg width="24" height="24" viewBox="0 0 24 24" fill="none" xmlns="http://www.w3.org/2000/svg">
<path d="M15.9992 13.6016H11.1992" stroke="#525966" stroke-width="1.2" stroke-linecap="round" stroke-linejoin="round"/>
<path d="M15.9992 9.60156H11.1992" stroke="#525966" stroke-width="1.2" stroke-linecap="round" stroke-linejoin="round"/>
<path d="M19.3984 18V6C19.3984 5.46957 19.1877 4.96086 18.8127 4.58579C18.4376 4.21071 17.9289 4 17.3984 4H4.39844" stroke="#525966" stroke-width="1.2" stroke-linecap="round" stroke-linejoin="round"/>
<path d="M8.39844 22H20.3984C20.9289 22 21.4376 21.7893 21.8126 21.4142C22.1877 21.0391 22.3984 20.5304 22.3984 20V19C22.3984 18.7348 22.2931 18.4804 22.1055 18.2929C21.918 18.1054 21.6637 18 21.3984 18H11.3984C11.1332 18 10.8789 18.1054 10.6913 18.2929C10.5038 18.4804 10.3984 18.7348 10.3984 19V20C10.3984 20.5304 10.1877 21.0391 9.81265 21.4142C9.43758 21.7893 8.92887 22 8.39844 22ZM8.39844 22C7.868 22 7.3593 21.7893 6.98422 21.4142C6.60915 21.0391 6.39844 20.5304 6.39844 20V6C6.39844 5.46957 6.18772 4.96086 5.81265 4.58579C5.43758 4.21071 4.92887 4 4.39844 4C3.868 4 3.3593 4.21071 2.98422 4.58579C2.60915 4.96086 2.39844 5.46957 2.39844 6V8C2.39844 8.26522 2.50379 8.51957 2.69133 8.70711C2.87887 8.89464 3.13322 9 3.39844 9H6.39844" stroke="#525966" stroke-width="1.2" stroke-linecap="round" stroke-linejoin="round"/>
</svg>
