<svg width="24" height="24" viewBox="0 0 24 24" fill="none" xmlns="http://www.w3.org/2000/svg">
<path d="M3 3V19C3 19.5304 3.21071 20.0391 3.58579 20.4142C3.96086 20.7893 4.46957 21 5 21H21" stroke="#525966" stroke-width="1.2" stroke-linecap="round" stroke-linejoin="round"/>
<path d="M7 11.2108C7.00003 11.0785 7.05253 10.9515 7.146 10.8578L9.146 8.85783C9.19245 8.81127 9.24762 8.77433 9.30837 8.74912C9.36911 8.72391 9.43423 8.71094 9.5 8.71094C9.56577 8.71094 9.63089 8.72391 9.69163 8.74912C9.75238 8.77433 9.80755 8.81127 9.854 8.85783L13.146 12.1498C13.1924 12.1964 13.2476 12.2333 13.3084 12.2585C13.3691 12.2837 13.4342 12.2967 13.5 12.2967C13.5658 12.2967 13.6309 12.2837 13.6916 12.2585C13.7524 12.2333 13.8076 12.1964 13.854 12.1498L18.146 7.85783C18.2159 7.78779 18.3049 7.74004 18.402 7.72064C18.499 7.70124 18.5996 7.71106 18.691 7.74886C18.7824 7.78665 18.8606 7.85072 18.9156 7.93295C18.9706 8.01519 19 8.1119 19 8.21083V16.0038C19 16.269 18.8946 16.5234 18.7071 16.7109C18.5196 16.8985 18.2652 17.0038 18 17.0038H8C7.73478 17.0038 7.48043 16.8985 7.29289 16.7109C7.10536 16.5234 7 16.269 7 16.0038V11.2108Z" stroke="#525966" stroke-width="1.2" stroke-linecap="round" stroke-linejoin="round"/>
</svg>
